<svg width="150" height="150" viewBox="0 0 150 150" fill="none" xmlns="http://www.w3.org/2000/svg">
<g clip-path="url(#clip0_1804_42730)">
<path d="M77.0445 130.443C106.745 130.443 130.945 106.343 130.945 76.7429C130.845 47.0429 106.745 22.9429 77.0445 22.9429C47.2445 22.9429 23.1445 47.0429 23.1445 76.6429C23.1445 106.343 47.2445 130.443 77.0445 130.443Z" fill="#EAEEF9"/>
<path d="M132.245 57.9432C134.509 57.9432 136.345 56.1075 136.345 53.8432C136.345 51.5788 134.509 49.7432 132.245 49.7432C129.98 49.7432 128.145 51.5788 128.145 53.8432C128.145 56.1075 129.98 57.9432 132.245 57.9432Z" fill="#EAEEF9"/>
<path d="M138.245 41.9428C139.792 41.9428 141.045 40.6892 141.045 39.1428C141.045 37.5964 139.792 36.3428 138.245 36.3428C136.699 36.3428 135.445 37.5964 135.445 39.1428C135.445 40.6892 136.699 41.9428 138.245 41.9428Z" fill="#EAEEF9"/>
<path d="M18.5437 112.743C21.4156 112.743 23.7437 110.415 23.7437 107.543C23.7437 104.671 21.4156 102.343 18.5437 102.343C15.6719 102.343 13.3438 104.671 13.3438 107.543C13.3438 110.415 15.6719 112.743 18.5437 112.743Z" fill="#EAEEF9"/>
<g filter="url(#filter0_d_1804_42730)">
<path d="M60.1227 90.4524C60.1227 95.102 56.3626 98.8621 51.6726 98.8621C51.5917 98.8621 50.9044 98.8621 45.8505 98.8621C42.333 98.8621 36.713 98.8621 27.7373 98.8621H23.4516C17.8316 98.9834 13.3438 94.4955 13.3438 89.0777C13.3438 83.6195 17.8721 79.0912 23.5729 79.3742C28.465 64.0912 50.864 66.234 52.7642 82.0427C56.9691 82.5683 60.1227 86.1262 60.1227 90.4524Z" fill="url(#paint0_linear_1804_42730)"/>
</g>
<path d="M51.6728 98.8619C56.3224 98.8619 60.1229 95.1018 60.1229 90.4522C60.1229 85.8026 56.3224 82.0425 51.6728 82.0425C47.0232 82.0425 43.2227 85.8026 43.2227 90.4522C43.2227 95.1018 47.0232 98.8619 51.6728 98.8619Z" fill="url(#paint1_linear_1804_42730)"/>
<path d="M37.8842 98.9429C46.1726 98.9429 52.9246 92.2313 52.9246 83.9429C52.9246 75.6545 46.1726 68.9429 37.8842 68.9429C29.5958 68.9429 22.8438 75.6545 22.8438 83.9429C22.8438 92.2313 29.5553 98.9429 37.8842 98.9429Z" fill="url(#paint2_linear_1804_42730)"/>
<g filter="url(#filter1_d_1804_42730)">
<path d="M73.4905 49.2296C73.4905 55.6439 68.3032 60.8311 61.8332 60.8311C61.7216 60.8311 60.7734 60.8311 53.8014 60.8311C48.9488 60.8311 41.1959 60.8311 28.8135 60.8311H22.9012C15.1482 60.9985 8.95703 54.8073 8.95703 47.3332C8.95703 39.8034 15.204 33.5564 23.0685 33.9469C29.8174 12.8633 60.7176 15.8195 63.3391 37.6281C69.1399 38.3532 73.4905 43.2615 73.4905 49.2296Z" fill="url(#paint3_linear_1804_42730)"/>
</g>
<path d="M61.8331 60.8315C68.2474 60.8315 73.4904 55.6442 73.4904 49.2299C73.4904 42.8156 68.2474 37.6284 61.8331 37.6284C55.4188 37.6284 50.1758 42.8156 50.1758 49.2299C50.1758 55.6442 55.4188 60.8315 61.8331 60.8315Z" fill="url(#paint4_linear_1804_42730)"/>
<path d="M42.8153 60.9428C54.2495 60.9428 63.5641 51.6839 63.5641 40.2497C63.5641 28.8155 54.2495 19.5566 42.8153 19.5566C31.3811 19.5566 22.0664 28.8155 22.0664 40.2497C22.0664 51.6839 31.3253 60.9428 42.8153 60.9428Z" fill="url(#paint5_linear_1804_42730)"/>
<path d="M58.4009 66.7519C58.4009 57.3843 66.0319 49.7684 75.418 49.7684C84.8041 49.7684 92.4351 57.3843 92.4351 66.7519C92.4351 76.1194 84.8041 83.7353 75.418 83.7353C66.0319 83.7353 58.4009 76.1956 58.4009 66.7519ZM75.418 34.6128C56.951 34.6128 41.918 49.6161 41.918 68.0466C41.918 81.4505 59.6218 106.811 69.3132 116.255C71.4499 118.311 74.3496 119.149 77.0968 118.616C77.3257 118.616 77.4783 118.54 77.7073 118.464C77.7836 118.464 77.8599 118.464 77.9362 118.388C79.2335 118.007 80.5307 117.245 81.5991 116.255C89.6879 108.335 103.347 87.6194 107.621 75.1293C108.231 73.3015 108.689 71.4737 108.842 69.7221C108.918 69.1128 108.918 68.5797 108.918 67.9704C108.918 49.6161 93.9613 34.6128 75.418 34.6128Z" fill="url(#paint6_linear_1804_42730)"/>
<path d="M75.4167 126.613C61.2994 126.613 46.9531 122.881 46.9531 115.798C46.9531 113.894 48.0215 111.153 53.1342 108.792C54.1262 108.335 55.1946 108.792 55.6524 109.706C56.1103 110.696 55.6524 111.762 54.7367 112.219C51.7606 113.59 50.7686 114.961 50.7686 115.722C50.7686 118.616 60.3836 122.729 75.4167 122.729C90.4497 122.729 100.065 118.54 100.065 115.722C100.065 114.732 98.6149 113.133 94.6467 111.61C93.6547 111.229 93.1969 110.163 93.5784 109.173C93.96 108.182 95.0283 107.725 96.0203 108.106C102.507 110.62 103.88 113.666 103.88 115.798C103.88 122.881 89.534 126.613 75.4167 126.613Z" fill="#969EAE"/>
<g filter="url(#filter2_d_1804_42730)">
<path d="M136.345 93.8523C136.345 98.5019 132.585 102.262 127.895 102.262C127.814 102.262 127.127 102.262 122.073 102.262C118.556 102.262 112.936 102.262 103.96 102.262H99.6742C94.0543 102.383 89.5664 97.8954 89.5664 92.4776C89.5664 87.0194 94.0947 82.4911 99.7955 82.7741C104.688 67.4911 127.087 69.634 128.987 85.4426C133.192 85.9682 136.345 89.5261 136.345 93.8523Z" fill="url(#paint7_linear_1804_42730)"/>
</g>
<path d="M127.895 102.262C132.545 102.262 136.346 98.5017 136.346 93.8521C136.346 89.2025 132.545 85.4424 127.895 85.4424C123.246 85.4424 119.445 89.2025 119.445 93.8521C119.445 98.5017 123.246 102.262 127.895 102.262Z" fill="url(#paint8_linear_1804_42730)"/>
<path d="M114.107 102.343C122.395 102.343 129.147 95.6312 129.147 87.3428C129.147 79.0544 122.395 72.3428 114.107 72.3428C105.818 72.3428 99.0664 79.0544 99.0664 87.3428C99.0664 95.6312 105.778 102.343 114.107 102.343Z" fill="url(#paint9_linear_1804_42730)"/>
</g>
<defs>
<filter id="filter0_d_1804_42730" x="-8.65625" y="57.9795" width="90.7773" height="73.8848" filterUnits="userSpaceOnUse" color-interpolation-filters="sRGB">
<feFlood flood-opacity="0" result="BackgroundImageFix"/>
<feColorMatrix in="SourceAlpha" type="matrix" values="0 0 0 0 0 0 0 0 0 0 0 0 0 0 0 0 0 0 127 0" result="hardAlpha"/>
<feOffset dy="11"/>
<feGaussianBlur stdDeviation="11"/>
<feColorMatrix type="matrix" values="0 0 0 0 0.397708 0 0 0 0 0.47749 0 0 0 0 0.575 0 0 0 0.27 0"/>
<feBlend mode="normal" in2="BackgroundImageFix" result="effect1_dropShadow_1804_42730"/>
<feBlend mode="normal" in="SourceGraphic" in2="effect1_dropShadow_1804_42730" result="shape"/>
</filter>
<filter id="filter1_d_1804_42730" x="-13.043" y="8.60693" width="108.535" height="85.2275" filterUnits="userSpaceOnUse" color-interpolation-filters="sRGB">
<feFlood flood-opacity="0" result="BackgroundImageFix"/>
<feColorMatrix in="SourceAlpha" type="matrix" values="0 0 0 0 0 0 0 0 0 0 0 0 0 0 0 0 0 0 127 0" result="hardAlpha"/>
<feOffset dy="11"/>
<feGaussianBlur stdDeviation="11"/>
<feColorMatrix type="matrix" values="0 0 0 0 0.397708 0 0 0 0 0.47749 0 0 0 0 0.575 0 0 0 0.27 0"/>
<feBlend mode="normal" in2="BackgroundImageFix" result="effect1_dropShadow_1804_42730"/>
<feBlend mode="normal" in="SourceGraphic" in2="effect1_dropShadow_1804_42730" result="shape"/>
</filter>
<filter id="filter2_d_1804_42730" x="67.5664" y="61.3794" width="90.7773" height="73.8848" filterUnits="userSpaceOnUse" color-interpolation-filters="sRGB">
<feFlood flood-opacity="0" result="BackgroundImageFix"/>
<feColorMatrix in="SourceAlpha" type="matrix" values="0 0 0 0 0 0 0 0 0 0 0 0 0 0 0 0 0 0 127 0" result="hardAlpha"/>
<feOffset dy="11"/>
<feGaussianBlur stdDeviation="11"/>
<feColorMatrix type="matrix" values="0 0 0 0 0.397708 0 0 0 0 0.47749 0 0 0 0 0.575 0 0 0 0.27 0"/>
<feBlend mode="normal" in2="BackgroundImageFix" result="effect1_dropShadow_1804_42730"/>
<feBlend mode="normal" in="SourceGraphic" in2="effect1_dropShadow_1804_42730" result="shape"/>
</filter>
<linearGradient id="paint0_linear_1804_42730" x1="36.7332" y1="81.3291" x2="36.718" y2="99.1867" gradientUnits="userSpaceOnUse">
<stop stop-color="white"/>
<stop offset="0.9964" stop-color="#ECF0F5"/>
</linearGradient>
<linearGradient id="paint1_linear_1804_42730" x1="42.3234" y1="80.2319" x2="49.8144" y2="88.4248" gradientUnits="userSpaceOnUse">
<stop stop-color="#BCCBE1"/>
<stop offset="0.9942" stop-color="white" stop-opacity="0"/>
</linearGradient>
<linearGradient id="paint2_linear_1804_42730" x1="21.4354" y1="77.0598" x2="33.2418" y2="81.68" gradientUnits="userSpaceOnUse">
<stop stop-color="#E2E8F0"/>
<stop offset="0.9942" stop-color="white" stop-opacity="0"/>
</linearGradient>
<linearGradient id="paint3_linear_1804_42730" x1="41.2237" y1="36.6437" x2="41.2027" y2="61.2789" gradientUnits="userSpaceOnUse">
<stop stop-color="white"/>
<stop offset="0.9964" stop-color="#ECF0F5"/>
</linearGradient>
<linearGradient id="paint4_linear_1804_42730" x1="48.9353" y1="35.1306" x2="59.2694" y2="46.433" gradientUnits="userSpaceOnUse">
<stop stop-color="#BCCBE1"/>
<stop offset="0.9942" stop-color="white" stop-opacity="0"/>
</linearGradient>
<linearGradient id="paint5_linear_1804_42730" x1="20.1235" y1="30.7542" x2="36.4109" y2="37.128" gradientUnits="userSpaceOnUse">
<stop stop-color="#E2E8F0"/>
<stop offset="0.9942" stop-color="white" stop-opacity="0"/>
</linearGradient>
<linearGradient id="paint6_linear_1804_42730" x1="75.4233" y1="37.5364" x2="75.4233" y2="84.7745" gradientUnits="userSpaceOnUse">
<stop stop-color="#B0BACC"/>
<stop offset="1" stop-color="#969EAE"/>
</linearGradient>
<linearGradient id="paint7_linear_1804_42730" x1="112.956" y1="84.729" x2="112.941" y2="102.587" gradientUnits="userSpaceOnUse">
<stop stop-color="white"/>
<stop offset="0.9964" stop-color="#ECF0F5"/>
</linearGradient>
<linearGradient id="paint8_linear_1804_42730" x1="118.546" y1="83.6318" x2="126.037" y2="91.8247" gradientUnits="userSpaceOnUse">
<stop stop-color="#BCCBE1"/>
<stop offset="0.9942" stop-color="white" stop-opacity="0"/>
</linearGradient>
<linearGradient id="paint9_linear_1804_42730" x1="97.658" y1="80.4597" x2="109.464" y2="85.0799" gradientUnits="userSpaceOnUse">
<stop stop-color="#E2E8F0"/>
<stop offset="0.9942" stop-color="white" stop-opacity="0"/>
</linearGradient>
<clipPath id="clip0_1804_42730">
<rect width="150" height="150" fill="white"/>
</clipPath>
</defs>
</svg>
