<svg width="150" height="150" viewBox="0 0 150 150" fill="none" xmlns="http://www.w3.org/2000/svg">
<path d="M70.8006 125.8C98.8006 125.8 121.501 103.1 121.501 75C121.501 46.9 98.8006 24.2 70.8006 24.2C42.8006 24.2 20.1006 46.9 20.1006 75C20.1006 103.1 42.8006 125.8 70.8006 125.8Z" fill="#EAEEF9"/>
<path d="M127.3 54.0999C129.565 54.0999 131.4 52.2643 131.4 49.9999C131.4 47.7355 129.565 45.8999 127.3 45.8999C125.036 45.8999 123.2 47.7355 123.2 49.9999C123.2 52.2643 125.036 54.0999 127.3 54.0999Z" fill="#EAEEF9"/>
<path d="M133.3 37.9999C134.846 37.9999 136.1 36.7463 136.1 35.1999C136.1 33.6535 134.846 32.3999 133.3 32.3999C131.754 32.3999 130.5 33.6535 130.5 35.1999C130.5 36.7463 131.754 37.9999 133.3 37.9999Z" fill="#EAEEF9"/>
<path d="M16.7004 56.9999C18.2468 56.9999 19.5004 55.7463 19.5004 54.1999C19.5004 52.6535 18.2468 51.3999 16.7004 51.3999C15.154 51.3999 13.9004 52.6535 13.9004 54.1999C13.9004 55.7463 15.154 56.9999 16.7004 56.9999Z" fill="#EAEEF9"/>
<path d="M21.9002 117.9C24.7721 117.9 27.1002 115.572 27.1002 112.7C27.1002 109.828 24.7721 107.5 21.9002 107.5C19.0283 107.5 16.7002 109.828 16.7002 112.7C16.7002 115.572 19.0283 117.9 21.9002 117.9Z" fill="#EAEEF9"/>
<path d="M102.2 45.3999V87.0999C102.2 89.5999 100.1 91.6999 97.6 91.6999H28.6C26.1 91.6999 24 89.6999 24 87.0999V45.3999C24 42.8999 26.1 40.7999 28.6 40.7999H97.6C100.1 40.7999 102.2 42.8999 102.2 45.3999Z" fill="#D5DDEA"/>
<path opacity="0.3" d="M102.2 59.2999V87.0999C102.2 89.5999 100.1 91.6999 97.5998 91.6999H39.7998V63.8999C39.7998 61.3999 41.7998 59.2999 44.3998 59.2999H102.2Z" fill="#989FB0"/>
<g filter="url(#filter0_d_947_8325)">
<path d="M114.5 112.7H50.4004C46.5004 112.7 43.4004 109.6 43.4004 105.7V68.7999C43.4004 64.8999 46.5004 61.7999 50.4004 61.7999H114.5C118.4 61.7999 121.5 64.8999 121.5 68.7999V105.7C121.5 109.6 118.4 112.7 114.5 112.7Z" fill="url(#paint0_linear_947_8325)"/>
</g>
<path d="M63.2004 101.2H53.0004C52.1004 101.2 51.4004 100.5 51.4004 99.5999C51.4004 98.6999 52.1004 97.9999 53.0004 97.9999H63.2004C64.1004 97.9999 64.8004 98.6999 64.8004 99.5999C64.8004 100.5 64.1004 101.2 63.2004 101.2Z" fill="#D5DDEA"/>
<path d="M79.7004 101.2H69.5004C68.6004 101.2 67.9004 100.5 67.9004 99.5999C67.9004 98.6999 68.6004 97.9999 69.5004 97.9999H79.7004C80.6004 97.9999 81.3004 98.6999 81.3004 99.5999C81.3004 100.5 80.6004 101.2 79.7004 101.2Z" fill="#D5DDEA"/>
<path d="M96.2004 101.2H86.0004C85.1004 101.2 84.4004 100.5 84.4004 99.5999C84.4004 98.6999 85.1004 97.9999 86.0004 97.9999H96.2004C97.1004 97.9999 97.8004 98.6999 97.8004 99.5999C97.8004 100.5 97.1004 101.2 96.2004 101.2Z" fill="#D5DDEA"/>
<path d="M112.7 101.2H102.5C101.6 101.2 100.9 100.5 100.9 99.5999C100.9 98.6999 101.6 97.9999 102.5 97.9999H112.7C113.6 97.9999 114.3 98.6999 114.3 99.5999C114.3 100.5 113.6 101.2 112.7 101.2Z" fill="#D5DDEA"/>
<path d="M109 81.9999C112.314 81.9999 115 79.3136 115 75.9999C115 72.6862 112.314 69.9999 109 69.9999C105.686 69.9999 103 72.6862 103 75.9999C103 79.3136 105.686 81.9999 109 81.9999Z" fill="#989FB0"/>
<path d="M101.1 81.9999C104.413 81.9999 107.1 79.3136 107.1 75.9999C107.1 72.6862 104.413 69.9999 101.1 69.9999C97.7859 69.9999 95.0996 72.6862 95.0996 75.9999C95.0996 79.3136 97.7859 81.9999 101.1 81.9999Z" fill="#D5DDEA"/>
<path d="M102.2 49.2999H24.0996V59.0999H102.2V49.2999Z" fill="#989FB0"/>
<path d="M64.1004 83.9H52.9004C52.1004 83.9 51.4004 83.2 51.4004 82.4V75.2C51.4004 74.4 52.1004 73.7 52.9004 73.7H64.0004C64.8004 73.7 65.5004 74.4 65.5004 75.2V82.4C65.6004 83.2 64.9004 83.9 64.1004 83.9Z" fill="#D5DDEA"/>
<defs>
<filter id="filter0_d_947_8325" x="21.4004" y="50.7999" width="122.1" height="94.9" filterUnits="userSpaceOnUse" color-interpolation-filters="sRGB">
<feFlood flood-opacity="0" result="BackgroundImageFix"/>
<feColorMatrix in="SourceAlpha" type="matrix" values="0 0 0 0 0 0 0 0 0 0 0 0 0 0 0 0 0 0 127 0" result="hardAlpha"/>
<feOffset dy="11"/>
<feGaussianBlur stdDeviation="11"/>
<feColorMatrix type="matrix" values="0 0 0 0 0.397708 0 0 0 0 0.47749 0 0 0 0 0.575 0 0 0 0.27 0"/>
<feBlend mode="normal" in2="BackgroundImageFix" result="effect1_dropShadow_947_8325"/>
<feBlend mode="normal" in="SourceGraphic" in2="effect1_dropShadow_947_8325" result="shape"/>
</filter>
<linearGradient id="paint0_linear_947_8325" x1="82.4249" y1="60.6226" x2="82.4249" y2="113.249" gradientUnits="userSpaceOnUse">
<stop stop-color="#FDFEFF"/>
<stop offset="0.9964" stop-color="#ECF0F5"/>
</linearGradient>
</defs>
</svg>
