<svg width="150" height="150" viewBox="0 0 150 150" fill="none" xmlns="http://www.w3.org/2000/svg">
<path d="M78.825 134.31C106.825 134.31 129.525 111.61 129.525 83.5105C129.525 55.4105 106.725 32.7104 78.825 32.7104C50.825 32.7104 28.125 55.4105 28.125 83.5105C28.125 111.61 50.825 134.31 78.825 134.31Z" fill="#EAEEF9"/>
<path d="M132.675 116.287C134.94 116.287 136.775 114.452 136.775 112.187C136.775 109.923 134.94 108.087 132.675 108.087C130.411 108.087 128.575 109.923 128.575 112.187C128.575 114.452 130.411 116.287 132.675 116.287Z" fill="#EAEEF9"/>
<path d="M138.675 100.287C140.221 100.287 141.475 99.0337 141.475 97.4873C141.475 95.9409 140.221 94.6873 138.675 94.6873C137.129 94.6873 135.875 95.9409 135.875 97.4873C135.875 99.0337 137.129 100.287 138.675 100.287Z" fill="#EAEEF9"/>
<path d="M30.8254 50.1105C32.3718 50.1105 33.6254 48.8569 33.6254 47.3105C33.6254 45.7641 32.3718 44.5105 30.8254 44.5105C29.279 44.5105 28.0254 45.7641 28.0254 47.3105C28.0254 48.8569 29.279 50.1105 30.8254 50.1105Z" fill="#EAEEF9"/>
<path d="M13.7254 104.11C16.5973 104.11 18.9254 101.782 18.9254 98.9105C18.9254 96.0386 16.5973 93.7104 13.7254 93.7104C10.8535 93.7104 8.52539 96.0386 8.52539 98.9105C8.52539 101.782 10.8535 104.11 13.7254 104.11Z" fill="#EAEEF9"/>
<path d="M85.1867 101.928H73.9195C71.3088 101.928 69.1104 104.337 69.1104 107.197V113.368C69.1104 119.69 73.7821 124.808 79.5531 124.808C85.3241 124.808 89.9958 119.69 89.9958 113.368V107.197C89.9958 104.186 87.7974 101.928 85.1867 101.928Z" fill="white"/>
<g filter="url(#filter0_d_1087_7964)">
<path d="M78.5527 36.1104C81.713 36.1104 84.1865 38.5829 84.1865 41.7422V42.7939C95.2112 45.344 103.423 55.2176 103.423 67.0166V70.1768C103.423 96.7917 123.435 114.226 123.484 114.27H33.4844C33.5339 114.227 53.6824 96.7921 53.6826 70.1768V67.0166C53.6828 55.2175 61.8951 45.3439 72.9199 42.7939V41.7422C72.9199 38.583 75.3926 36.1105 78.5527 36.1104Z" fill="url(#paint0_linear_1087_7964)"/>
</g>
<path d="M68.1104 81.0279C64.6753 81.0279 61.7898 78.8301 60.6906 75.6708C60.4158 74.984 60.828 74.2972 61.515 74.0225C62.202 73.7477 62.889 74.1598 63.1639 74.8466C63.8509 76.9071 65.9119 78.4181 68.1104 78.4181C70.3089 78.4181 72.37 77.0444 73.057 74.8466C73.3318 74.1598 74.0188 73.7477 74.7058 74.0225C75.3929 74.2972 75.8051 74.984 75.5303 75.6708C74.431 78.9675 71.5455 81.0279 68.1104 81.0279Z" fill="#ADB6C8"/>
<path d="M88.8585 81.0279C85.4233 81.0279 82.5379 78.8301 81.4386 75.6708C81.1638 74.984 81.576 74.2972 82.263 74.0225C82.9501 73.7477 83.6371 74.1598 83.9119 74.8466C84.5989 76.9071 86.66 78.4181 88.8585 78.4181C91.0569 78.4181 93.118 77.0444 93.805 74.8466C94.0798 74.1598 94.7669 73.7477 95.4539 74.0225C96.1409 74.2972 96.5531 74.984 96.2783 75.6708C95.1791 78.9675 92.2936 81.0279 88.8585 81.0279Z" fill="#ADB6C8"/>
<path d="M78.5529 97.8466C80.2983 97.8466 81.7132 96.4321 81.7132 94.6873C81.7132 92.9424 80.2983 91.528 78.5529 91.528C76.8075 91.528 75.3926 92.9424 75.3926 94.6873C75.3926 96.4321 76.8075 97.8466 78.5529 97.8466Z" fill="#ADB6C8"/>
<path d="M95.4878 20.3392V15.6896H113.458V20.3392L101.196 35.1337H113.669V39.7833H94.8535V35.1337L107.115 20.3392H95.4878Z" fill="url(#paint1_linear_1087_7964)"/>
<path d="M110.286 55.2118V52.2529H121.914V55.2118L114.092 64.7225H122.125V67.6814H109.863V64.7225L117.686 55.2118H110.286Z" fill="url(#paint2_linear_1087_7964)"/>
<defs>
<filter id="filter0_d_1087_7964" x="11.4844" y="25.1104" width="134" height="122.159" filterUnits="userSpaceOnUse" color-interpolation-filters="sRGB">
<feFlood flood-opacity="0" result="BackgroundImageFix"/>
<feColorMatrix in="SourceAlpha" type="matrix" values="0 0 0 0 0 0 0 0 0 0 0 0 0 0 0 0 0 0 127 0" result="hardAlpha"/>
<feOffset dy="11"/>
<feGaussianBlur stdDeviation="11"/>
<feColorMatrix type="matrix" values="0 0 0 0 0.397708 0 0 0 0 0.47749 0 0 0 0 0.575 0 0 0 0.27 0"/>
<feBlend mode="normal" in2="BackgroundImageFix" result="effect1_dropShadow_1087_7964"/>
<feBlend mode="normal" in="SourceGraphic" in2="effect1_dropShadow_1087_7964" result="shape"/>
</filter>
<linearGradient id="paint0_linear_1087_7964" x1="78.455" y1="34.3025" x2="78.455" y2="115.112" gradientUnits="userSpaceOnUse">
<stop stop-color="#FDFEFF"/>
<stop offset="0.9964" stop-color="#ECF0F5"/>
</linearGradient>
<linearGradient id="paint1_linear_1087_7964" x1="104.263" y1="16.5266" x2="104.263" y2="30.0501" gradientUnits="userSpaceOnUse">
<stop stop-color="#B0BACC"/>
<stop offset="1" stop-color="#969EAE"/>
</linearGradient>
<linearGradient id="paint2_linear_1087_7964" x1="115.995" y1="52.7889" x2="115.995" y2="61.4487" gradientUnits="userSpaceOnUse">
<stop stop-color="#B0BACC"/>
<stop offset="1" stop-color="#969EAE"/>
</linearGradient>
</defs>
</svg>
