<svg width="150" height="150" viewBox="0 0 150 150" fill="none" xmlns="http://www.w3.org/2000/svg">
<path d="M119.86 41.0332C121.972 41.0332 123.684 39.3194 123.684 37.2052C123.684 35.0911 121.972 33.3772 119.86 33.3772C117.747 33.3772 116.035 35.0911 116.035 37.2052C116.035 39.3194 117.747 41.0332 119.86 41.0332Z" fill="#EAEEF9"/>
<path d="M18.2662 61.7344C19.6558 61.7344 20.7824 60.6068 20.7824 59.2159C20.7824 57.825 19.6558 56.6975 18.2662 56.6975C16.8765 56.6975 15.75 57.825 15.75 59.2159C15.75 60.6068 16.8765 61.7344 18.2662 61.7344Z" fill="#EAEEF9"/>
<path d="M29.8326 107.011C31.2222 107.011 32.3488 105.883 32.3488 104.493C32.3488 103.102 31.2222 101.974 29.8326 101.974C28.4429 101.974 27.3164 103.102 27.3164 104.493C27.3164 105.883 28.4429 107.011 29.8326 107.011Z" fill="#EAEEF9"/>
<path d="M43.2832 107.011L78.5922 95.9471V50.5854L43.2832 61.5642V107.011Z" fill="#B7BFCD"/>
<path opacity="0.4" d="M113.901 107.011L78.5918 95.9471V50.5854L113.901 61.5642V107.011Z" fill="#6D7C9A"/>
<g opacity="0.13">
<path d="M43.2832 107.011L78.5922 95.9471V50.5854L43.2832 61.5642V107.011Z" fill="url(#paint0_linear_817_9255)"/>
<path d="M113.901 107.011L78.5922 95.9471V50.5854L113.901 61.5642V107.011Z" fill="url(#paint1_linear_817_9255)"/>
</g>
<path d="M78.5922 118.16L43.2832 107.096V61.7344L78.5922 72.7982V118.16Z" fill="#EDF1F9"/>
<path d="M78.5918 118.16L113.901 107.096V61.7344L78.5918 72.7982V118.16Z" fill="#DAE1ED"/>
<path opacity="0.09" d="M70.5922 110.16L43.2832 107.096V61.7344L78.5922 72.7982L70.5922 110.16Z" fill="url(#paint2_linear_817_9255)"/>
<path opacity="0.2" d="M86.5918 102.16L113.901 107.096V61.7344L78.5918 72.7982L86.5918 102.16Z" fill="url(#paint3_linear_817_9255)"/>
<path d="M78.5918 50.5854L61.9907 38.1599L26.0918 50.245L43.2828 61.5642L78.5918 50.5854Z" fill="#DAE1ED"/>
<path d="M78.5918 50.5854L95.1929 38.1599L131.092 50.245L113.901 61.5642L78.5918 50.5854Z" fill="#DAE1ED"/>
<path d="M43.2828 61.7344L78.5918 72.7982L60.9794 84.0323L26.0918 72.4578L43.2828 61.7344Z" fill="#EFF4FD"/>
<path d="M113.901 61.7344L78.5918 72.7982L96.2042 84.0323L131.092 72.4578L113.901 61.7344Z" fill="#EDF1F9"/>
<path d="M32.3491 34.0301H30.159V31.8401H28.2818V34.0301H26.0918V35.9699H28.2818V38.1599H30.159V35.9699H32.3491V34.0301Z" fill="url(#paint4_linear_817_9255)"/>
<path d="M37.1596 88.9773H34.9696V86.7872H33.0924V88.9773H30.9023V90.917H33.0924V93.1071H34.9696V90.917H37.1596V88.9773Z" fill="url(#paint5_linear_817_9255)"/>
<path d="M132.897 89.1013L130.217 87.7484L131.57 85.0689L129.273 83.9093L127.92 86.5888L125.241 85.2359L124.043 87.6093L126.722 88.9621L125.369 91.6417L127.666 92.8013L129.019 90.1217L131.698 91.4746L132.897 89.1013Z" fill="url(#paint6_linear_817_9255)"/>
<defs>
<linearGradient id="paint0_linear_817_9255" x1="67.4459" y1="53.8708" x2="62.6299" y2="73.9206" gradientUnits="userSpaceOnUse">
<stop offset="0.00289017" stop-color="#606673" stop-opacity="0"/>
<stop offset="1" stop-color="#373C47"/>
</linearGradient>
<linearGradient id="paint1_linear_817_9255" x1="67.4459" y1="53.8708" x2="62.6299" y2="73.9206" gradientUnits="userSpaceOnUse">
<stop offset="0.00289017" stop-color="#606673" stop-opacity="0"/>
<stop offset="1" stop-color="#373C47"/>
</linearGradient>
<linearGradient id="paint2_linear_817_9255" x1="51.1993" y1="92.7797" x2="59.6819" y2="68.8215" gradientUnits="userSpaceOnUse">
<stop offset="0.00289017" stop-color="#6C80AA" stop-opacity="0"/>
<stop offset="1" stop-color="#5D6A86"/>
</linearGradient>
<linearGradient id="paint3_linear_817_9255" x1="97.6476" y1="99.3241" x2="98.3147" y2="68.9215" gradientUnits="userSpaceOnUse">
<stop offset="0.00289017" stop-color="#314F91" stop-opacity="0"/>
<stop offset="1" stop-color="#324264"/>
</linearGradient>
<linearGradient id="paint4_linear_817_9255" x1="29.2209" y1="32.0596" x2="29.2209" y2="35.6069" gradientUnits="userSpaceOnUse">
<stop stop-color="#B0BACC"/>
<stop offset="1" stop-color="#969EAE"/>
</linearGradient>
<linearGradient id="paint5_linear_817_9255" x1="34.0315" y1="87.0068" x2="34.0315" y2="90.554" gradientUnits="userSpaceOnUse">
<stop stop-color="#B0BACC"/>
<stop offset="1" stop-color="#969EAE"/>
</linearGradient>
<linearGradient id="paint6_linear_817_9255" x1="130.287" y1="84.758" x2="128.095" y2="89.0981" gradientUnits="userSpaceOnUse">
<stop stop-color="#B0BACC"/>
<stop offset="1" stop-color="#969EAE"/>
</linearGradient>
</defs>
</svg>
