<svg width="150" height="150" viewBox="0 0 150 150" fill="none" xmlns="http://www.w3.org/2000/svg">
<g clip-path="url(#clip0_1087_8056)">
<path d="M71.5154 133.969C99.5154 133.969 122.215 111.269 122.215 83.1693C122.215 55.0693 99.4154 32.3693 71.5154 32.3693C43.5154 32.3693 20.8154 55.0693 20.8154 83.1693C20.8154 111.269 43.5154 133.969 71.5154 133.969Z" fill="#EAEEF9"/>
<path d="M118.915 49.8693C121.18 49.8693 123.015 48.0337 123.015 45.7693C123.015 43.5049 121.18 41.6693 118.915 41.6693C116.651 41.6693 114.815 43.5049 114.815 45.7693C114.815 48.0337 116.651 49.8693 118.915 49.8693Z" fill="#EAEEF9"/>
<path d="M124.916 33.8693C126.463 33.8693 127.716 32.6157 127.716 31.0693C127.716 29.5229 126.463 28.2693 124.916 28.2693C123.37 28.2693 122.116 29.5229 122.116 31.0693C122.116 32.6157 123.37 33.8693 124.916 33.8693Z" fill="#EAEEF9"/>
<path d="M23.5158 49.7693C25.0622 49.7693 26.3158 48.5157 26.3158 46.9693C26.3158 45.4229 25.0622 44.1693 23.5158 44.1693C21.9694 44.1693 20.7158 45.4229 20.7158 46.9693C20.7158 48.5157 21.9694 49.7693 23.5158 49.7693Z" fill="#EAEEF9"/>
<path d="M6.41582 103.769C9.2877 103.769 11.6158 101.441 11.6158 98.5693C11.6158 95.6974 9.2877 93.3693 6.41582 93.3693C3.54394 93.3693 1.21582 95.6974 1.21582 98.5693C1.21582 101.441 3.54394 103.769 6.41582 103.769Z" fill="#EAEEF9"/>
<path d="M148.785 67.2194H143.824V62.2583H139.571V67.2194H134.61V71.6136H139.571V76.5748H143.824V71.6136H148.785V67.2194Z" fill="url(#paint0_linear_1087_8056)"/>
<path d="M66.6837 20.2718H62.4426V16.0308H58.8075V20.2718H54.5664V24.0282H58.8075V28.2692H62.4426V24.0282H66.6837V20.2718Z" fill="url(#paint1_linear_1087_8056)"/>
<path d="M16.769 62.5836H13.1454V58.9601H10.0396V62.5836H6.41602V65.793H10.0396V69.4166H13.1454V65.793H16.769V62.5836Z" fill="url(#paint2_linear_1087_8056)"/>
<g filter="url(#filter0_d_1087_8056)">
<path d="M107.18 73.3727L97.1665 48.9211C95.3812 44.5742 90.7238 42.0902 86.1439 43.0993L60.2952 48.6882C58.1217 49.154 56.2587 50.6288 55.172 52.5694L30.5652 99.4543C29.5561 101.395 30.2547 103.879 32.2729 104.888L76.8291 128.33C78.7697 129.34 81.2536 128.641 82.2627 126.623L106.87 79.7378C107.956 77.7972 108.034 75.4685 107.18 73.3727ZM82.418 63.5144C79.2354 61.8843 77.9934 57.9255 79.7012 54.7429C81.3313 51.5603 85.2901 50.3183 88.4727 52.0261C91.6552 53.6562 92.8972 57.615 91.1895 60.7976C89.5594 63.9802 85.6006 65.2221 82.418 63.5144Z" fill="url(#paint3_linear_1087_8056)"/>
</g>
<path d="M85.6006 57.5374C105.86 47.0581 113.856 31.4557 103.299 24.7024C92.742 17.9491 82.3404 24.7024 79.7012 44.3413" stroke="#ADB6C8" stroke-width="5" stroke-miterlimit="10" stroke-linecap="round" stroke-linejoin="round"/>
<path d="M80.3132 91.3654C81.6838 92.1241 83.5089 91.5997 84.2676 90.2291C85.0263 88.8585 84.5018 87.0335 83.1313 86.2748C81.7607 85.516 79.9356 86.0405 79.1769 87.411C78.364 88.8795 78.8448 90.5525 80.3132 91.3654Z" fill="#AAB2C5"/>
<path d="M72.503 94.9462L71.2304 94.2417C71.4542 91.296 69.1029 88.8433 66.2009 88.7717C65.1031 88.6755 63.8863 89.0251 63.007 89.6894L61.7343 88.9849C64.4912 86.5462 68.8826 86.9308 71.1692 89.7314C72.2146 91.0775 72.8369 92.9568 72.503 94.9462Z" fill="#AAB2C5"/>
<path d="M60.7341 80.5268C62.1047 81.2855 63.9298 80.761 64.6885 79.3905C65.4472 78.0199 64.9227 76.1948 63.5522 75.4361C62.1816 74.6774 60.3565 75.2019 59.5978 76.5724C58.8828 78.0951 59.3635 79.7681 60.7341 80.5268Z" fill="#AAB2C5"/>
</g>
<defs>
<filter id="filter0_d_1087_8056" x="8.10742" y="31.8755" width="121.652" height="129.913" filterUnits="userSpaceOnUse" color-interpolation-filters="sRGB">
<feFlood flood-opacity="0" result="BackgroundImageFix"/>
<feColorMatrix in="SourceAlpha" type="matrix" values="0 0 0 0 0 0 0 0 0 0 0 0 0 0 0 0 0 0 127 0" result="hardAlpha"/>
<feOffset dy="11"/>
<feGaussianBlur stdDeviation="11"/>
<feColorMatrix type="matrix" values="0 0 0 0 0.397708 0 0 0 0 0.47749 0 0 0 0 0.575 0 0 0 0.27 0"/>
<feBlend mode="normal" in2="BackgroundImageFix" result="effect1_dropShadow_1087_8056"/>
<feBlend mode="normal" in="SourceGraphic" in2="effect1_dropShadow_1087_8056" result="shape"/>
</filter>
<linearGradient id="paint0_linear_1087_8056" x1="141.699" y1="62.7556" x2="141.699" y2="70.7913" gradientUnits="userSpaceOnUse">
<stop stop-color="#B0BACC"/>
<stop offset="1" stop-color="#969EAE"/>
</linearGradient>
<linearGradient id="paint1_linear_1087_8056" x1="60.626" y1="16.4559" x2="60.626" y2="23.3252" gradientUnits="userSpaceOnUse">
<stop stop-color="#B0BACC"/>
<stop offset="1" stop-color="#969EAE"/>
</linearGradient>
<linearGradient id="paint2_linear_1087_8056" x1="11.5933" y1="59.3233" x2="11.5933" y2="65.1925" gradientUnits="userSpaceOnUse">
<stop stop-color="#B0BACC"/>
<stop offset="1" stop-color="#969EAE"/>
</linearGradient>
<linearGradient id="paint3_linear_1087_8056" x1="68.9083" y1="40.8882" x2="68.9083" y2="129.714" gradientUnits="userSpaceOnUse">
<stop stop-color="#FDFEFF"/>
<stop offset="0.9964" stop-color="#ECF0F5"/>
</linearGradient>
<clipPath id="clip0_1087_8056">
<rect width="150" height="150" fill="white"/>
</clipPath>
</defs>
</svg>
