<svg width="24" height="24" viewBox="0 0 24 24" fill="none" xmlns="http://www.w3.org/2000/svg">
<path fill-rule="evenodd" clip-rule="evenodd" d="M19 12.5428C19 15.0629 18.4196 16.9408 17.2594 18.1646C16.0992 19.3884 14.307 19.9999 11.8905 19.9999C9.63291 19.9999 7.91973 19.388 6.75197 18.1646C5.58388 16.9411 5 15.0959 5 12.6289V4.35214C5.00069 4.15805 5.15893 4.00108 5.35424 4.0004H9.4479C9.64355 4.00108 9.8018 4.15805 9.80248 4.35214V12.8097C9.80248 13.817 9.99024 14.5923 10.3726 15.1392C11.0609 16.0442 12.3584 16.2244 13.2707 15.5416C13.4077 15.4391 13.5313 15.3203 13.6384 15.1875C14.0122 14.6744 14.1982 13.9181 14.1972 12.9187V11.335H19V12.5424V12.5428Z" fill="#203E7A"/>
<path fill-rule="evenodd" clip-rule="evenodd" d="M18.6283 10.4102H14.1973V4.36858C14.198 4.1653 14.3637 4.00083 14.5683 4.00049H15.2315C15.2329 6.0633 16.9189 7.73486 18.9984 7.73486H18.9994V10.4102H18.628H18.6283Z" fill="#203E7A"/>
<path fill-rule="evenodd" clip-rule="evenodd" d="M16.1761 4.00034H18.629C18.8339 4.00102 18.9997 4.16549 19.0001 4.36843V6.80478C17.4403 6.80478 16.1758 5.55034 16.1758 4.00306V4L16.1761 4.00034Z" fill="#F4821F"/>
</svg>
