<svg width="52" height="16" viewBox="0 0 52 16" fill="none" xmlns="http://www.w3.org/2000/svg">
<path d="M19.44 0.283825L12.736 15.7575H8.36267L5.064 3.40848C4.864 2.64732 4.69067 2.36865 4.08 2.0487C3.08533 1.5275 1.44267 1.03725 0 0.732785L0.0986667 0.283825H7.13867C8.03467 0.283825 8.84267 0.861796 9.04533 1.86293L10.7867 10.8163L15.0933 0.283825H19.44ZM36.576 10.7054C36.5947 6.62087 30.7387 6.39639 30.7787 4.57217C30.792 4.01742 31.3387 3.42654 32.5333 3.27689C33.1253 3.20206 34.76 3.1453 36.6133 3.96839L37.3387 0.686341C36.344 0.33543 35.064 0 33.4693 0C29.3787 0 26.5013 2.10289 26.4773 5.11659C26.4507 7.34333 28.5307 8.587 30.0987 9.32753C31.712 10.0861 32.2533 10.5738 32.2453 11.2498C32.2347 12.2871 30.96 12.7463 29.768 12.7644C27.688 12.7954 26.4827 12.22 25.52 11.7865L24.7707 15.1769C25.736 15.6052 27.5227 15.9794 29.3707 16C33.72 16 36.5627 13.9229 36.576 10.7054ZM47.3733 15.7575H51.2L47.8587 0.283825H44.328C43.5333 0.283825 42.864 0.730205 42.568 1.41913L36.36 15.7575H40.704L41.568 13.4456H46.8747L47.3733 15.7575ZM42.7573 10.2745L44.936 4.4638L46.1893 10.2745H42.7573ZM25.352 0.283825L21.9307 15.7575H17.792L21.216 0.283825H25.352Z" fill="#1434CB"/>
</svg>
