<svg width="150" height="32" viewBox="0 0 150 32" fill="none" xmlns="http://www.w3.org/2000/svg">
<g clip-path="url(#clip0_2377_54859)">
<path d="M115.877 9.41905C113.349 5.84002 107.374 5.5504 104.542 9.19379C101.962 5.80084 96.6478 5.79385 93.6534 8.77404C92.3117 10.2487 91.5339 12.1082 91.5298 14.1594L91.5117 24.4208H95.3117L95.3242 14.4798C95.327 12.1152 96.852 10.1676 99.2325 10.3341C101.302 10.4796 102.48 12.3783 102.48 14.5679V24.425L106.252 24.4138V14.6169C106.252 12.4314 107.478 10.5664 109.531 10.3523C111.796 10.1158 113.452 11.9081 113.456 14.1552L113.471 24.4194L117.239 24.425L117.219 13.5955C117.216 12.0732 116.733 10.6307 115.876 9.41765L115.877 9.41905Z" fill="black"/>
<path d="M149.994 28.9848C149.994 28.5819 149.865 28.2013 149.639 27.8809C148.971 26.9351 147.39 26.8581 146.642 27.8207C145.96 26.9239 144.554 26.9225 143.763 27.7102C143.408 28.1006 143.201 28.5917 143.201 29.1345L143.197 31.8475H144.201L144.204 29.2185C144.204 28.5931 144.608 28.0782 145.238 28.123C145.785 28.1607 146.096 28.663 146.096 29.2423V31.8489L147.093 31.8461V29.2549C147.093 28.677 147.417 28.1845 147.96 28.1272C148.558 28.0642 148.997 28.5385 148.997 29.1331L149.001 31.8475H149.997L149.992 28.9862L149.994 28.9848Z" fill="black"/>
<path d="M14.0736 15.809C15.2806 14.8631 16.3403 13.8236 17.1125 12.542C19.5319 8.63692 17.9236 3.68952 13.7014 1.93219C11.25 0.912204 8.46667 0.814264 5.9375 1.73071C2.63194 2.9032 0.484722 5.92816 0.459722 9.48901H4.51667C4.55 7.65332 5.54722 6.15063 7.16944 5.41188C8.77917 4.75288 10.5944 4.74588 12.1278 5.56858C13.9764 6.56058 14.6375 8.71947 13.7014 10.6111C13.2153 11.5933 12.475 12.402 11.5667 13.0974L0 21.9401L0.0319444 24.4264H19.7319V20.7648L7.75694 20.7536L14.0736 15.8076V15.809Z" fill="black"/>
<path d="M132.608 24.439L136.294 24.4264L136.297 7.4491L132.598 7.43371L132.585 9.23302C130.84 7.63519 128.566 6.91882 126.197 7.18606C123.31 7.51066 120.879 9.21343 119.529 11.7921C118.324 14.0895 118.174 16.7521 119.074 19.1964C120.313 22.5571 123.441 24.7188 126.999 24.7524C129.108 24.772 131.052 24.0724 132.587 22.6327L132.608 24.439ZM127.405 21.2238C124.524 21.2238 122.19 18.8732 122.19 15.9741C122.19 13.0751 124.524 10.7245 127.405 10.7245C130.285 10.7245 132.62 13.0751 132.62 15.9741C132.62 18.8732 130.285 21.2238 127.405 21.2238Z" fill="black"/>
<path d="M142.17 0H138.383V24.4264H142.17V0Z" fill="black"/>
<path d="M149.307 0H145.52V24.4264H149.307V0Z" fill="black"/>
<path d="M32.2078 1.10107C25.7064 1.10107 20.4355 6.41085 20.4355 12.9589C20.4355 19.5069 25.7064 24.8181 32.2078 24.8181C38.7092 24.8181 43.98 19.5083 43.98 12.9589C43.98 6.40945 38.7105 1.10107 32.2078 1.10107ZM32.2078 20.7829C27.9189 20.7829 24.4425 17.2809 24.4425 12.9603C24.4425 8.6397 27.9189 5.13763 32.2078 5.13763C36.4967 5.13763 39.973 8.6397 39.973 12.9603C39.973 17.2809 36.4967 20.7829 32.2078 20.7829Z" fill="black"/>
<path d="M59.5 15.809C60.7069 14.8631 61.7666 13.8236 62.5388 12.542C64.9583 8.63692 63.35 3.68952 59.1277 1.93219C56.6763 0.912204 53.893 0.814264 51.3638 1.73071C48.0583 2.9032 45.9111 5.92816 45.8861 9.48761H49.943C49.9763 7.65192 50.9736 6.14923 52.5958 5.41048C54.2055 4.75148 56.0208 4.74448 57.5541 5.56718C59.4027 6.55918 60.0638 8.71807 59.1277 10.6097C58.6416 11.5919 57.9013 12.4006 56.993 13.096L45.4277 21.9387L45.4597 24.425H65.1597V20.7634L53.1847 20.7522L59.5013 15.8062L59.5 15.809Z" fill="black"/>
<path d="M77.6355 1.10107C71.1341 1.10107 65.8633 6.41085 65.8633 12.9589C65.8633 19.5069 71.1341 24.8181 77.6355 24.8181C84.1369 24.8181 89.4077 19.5083 89.4077 12.9589C89.4077 6.40945 84.1369 1.10107 77.6355 1.10107ZM77.6355 20.7829C73.3466 20.7829 69.8702 17.2809 69.8702 12.9603C69.8702 8.6397 73.3466 5.13763 77.6355 5.13763C81.9244 5.13763 85.4008 8.6397 85.4008 12.9603C85.4008 17.2809 81.9244 20.7829 77.6355 20.7829Z" fill="black"/>
<path d="M139.974 27.1338C138.641 27.1338 137.559 28.2237 137.559 29.5669C137.559 30.9101 138.641 32 139.974 32C141.307 32 142.389 30.9101 142.389 29.5669C142.389 28.2237 141.307 27.1338 139.974 27.1338ZM139.974 31.1717C139.093 31.1717 138.381 30.4526 138.381 29.5669C138.381 28.6813 139.095 27.9621 139.974 27.9621C140.853 27.9621 141.567 28.6813 141.567 29.5669C141.567 30.4526 140.853 31.1717 139.974 31.1717Z" fill="black"/>
<path d="M134.657 27.962C135.27 27.962 135.802 28.3104 136.067 28.8211H136.956C136.644 27.8431 135.732 27.1351 134.657 27.1351C133.582 27.1351 132.671 27.8431 132.359 28.8211C132.284 29.0562 132.242 29.3066 132.242 29.5669C132.242 29.8271 132.282 30.0789 132.359 30.314C132.671 31.292 133.582 32 134.657 32C135.732 32 136.644 31.292 136.956 30.314H136.067C135.802 30.8247 135.27 31.1731 134.657 31.1731C134.045 31.1731 133.513 30.8247 133.248 30.314C133.131 30.0915 133.064 29.8369 133.064 29.5669C133.064 29.2968 133.13 29.0436 133.248 28.8211C133.513 28.3104 134.045 27.962 134.657 27.962Z" fill="black"/>
<path d="M130.756 31.8966C131.056 31.7097 131.149 31.3131 130.964 31.0107C130.778 30.7083 130.385 30.6147 130.084 30.8016C129.784 30.9885 129.691 31.3851 129.877 31.6875C130.062 31.9898 130.456 32.0835 130.756 31.8966Z" fill="black"/>
</g>
<defs>
<clipPath id="clip0_2377_54859">
<rect width="150" height="32" fill="white"/>
</clipPath>
</defs>
</svg>
