<?xml version="1.0" encoding="UTF-8"?>
<svg id="Layer_1" data-name="Layer 1" xmlns="http://www.w3.org/2000/svg" viewBox="0 0 1080 228.71">
  <defs>
    <style>
      .cls-1 {
        fill: #fff;
      }
    </style>
  </defs>
  <path class="cls-1" d="M834.32,67.32c-18.2-25.58-61.22-27.65-81.61-1.61-18.58-24.25-56.84-24.3-78.4-3-9.66,10.54-15.26,23.83-15.29,38.49l-.13,73.34h27.36s.09-71.05.09-71.05c.02-16.9,11-30.82,28.14-29.63,14.9,1.04,23.38,14.61,23.38,30.26v70.45s27.16-.08,27.16-.08v-70.02c0-15.62,8.83-28.95,23.61-30.48,16.31-1.69,28.23,11.12,28.26,27.18l.11,73.36,27.13.04-.15-77.4c-.02-10.88-3.5-21.19-9.67-29.86Z"/>
  <path class="cls-1" d="M1079.96,207.16c0-2.88-.93-5.6-2.56-7.89-4.81-6.76-16.19-7.31-21.58-.43-4.91-6.41-15.03-6.42-20.73-.79-2.55,2.79-4.04,6.3-4.04,10.18l-.03,19.39h7.23s.02-18.79.02-18.79c0-4.47,2.91-8.15,7.44-7.83,3.94.27,6.18,3.86,6.18,8v18.63s7.18-.02,7.18-.02v-18.52c0-4.13,2.33-7.65,6.24-8.06,4.31-.45,7.47,2.94,7.47,7.19l.03,19.4h7.17s-.04-20.45-.04-20.45Z"/>
  <path class="cls-1" d="M101.33,112.99c8.69-6.76,16.32-14.19,21.88-23.35,17.42-27.91,5.84-63.27-24.56-75.83-17.65-7.29-37.69-7.99-55.9-1.44C18.95,20.75,3.49,42.37,3.31,67.82h29.21c.24-13.12,7.42-23.86,19.1-29.14,11.59-4.71,24.66-4.76,35.7,1.12,13.31,7.09,18.07,22.52,11.33,36.04-3.5,7.02-8.83,12.8-15.37,17.77L0,156.81l.23,17.77h141.84s0-26.17,0-26.17l-86.22-.08,45.48-35.35Z"/>
  <path class="cls-1" d="M954.77,174.67l26.54-.09.02-121.34-26.63-.11-.09,12.86c-12.57-11.42-28.94-16.54-46-14.63-20.78,2.32-38.29,14.49-48.01,32.92-8.67,16.42-9.75,35.45-3.27,52.92,8.92,24.02,31.44,39.47,57.06,39.71,15.18.14,29.18-4.86,40.23-15.15l.15,12.91ZM917.31,151.69c-20.74,0-37.55-16.8-37.55-37.52s16.81-37.52,37.55-37.52,37.55,16.8,37.55,37.52-16.81,37.52-37.55,37.52Z"/>
  <rect class="cls-1" x="996.35" y="0" width="27.27" height="174.58"/>
  <rect class="cls-1" x="1047.74" y="0" width="27.27" height="174.58"/>
  <path class="cls-1" d="M231.9,7.87c-46.81,0-84.76,37.95-84.76,84.75s37.95,84.76,84.76,84.76,84.76-37.95,84.76-84.76S278.72,7.87,231.9,7.87ZM231.9,148.54c-30.88,0-55.91-25.03-55.91-55.91s25.03-55.91,55.91-55.91,55.91,25.03,55.91,55.91-25.03,55.91-55.91,55.91Z"/>
  <path class="cls-1" d="M428.4,112.99c8.69-6.76,16.32-14.19,21.88-23.35,17.42-27.91,5.84-63.27-24.56-75.83-17.65-7.29-37.69-7.99-55.9-1.44-23.8,8.38-39.26,30-39.44,55.44h29.21c.24-13.12,7.42-23.86,19.1-29.14,11.59-4.71,24.66-4.76,35.7,1.12,13.31,7.09,18.07,22.52,11.33,36.04-3.5,7.02-8.83,12.8-15.37,17.77l-83.27,63.2.23,17.77h141.84s0-26.17,0-26.17l-86.22-.08,45.48-35.35Z"/>
  <path class="cls-1" d="M558.98,7.87c-46.81,0-84.76,37.95-84.76,84.75s37.95,84.76,84.76,84.76,84.76-37.95,84.76-84.76S605.79,7.87,558.98,7.87ZM558.98,148.54c-30.88,0-55.91-25.03-55.91-55.91s25.03-55.91,55.91-55.91,55.91,25.03,55.91,55.91-25.03,55.91-55.91,55.91Z"/>
  <path class="cls-1" d="M1007.81,193.93c-9.6,0-17.39,7.79-17.39,17.39s7.79,17.39,17.39,17.39,17.39-7.79,17.39-17.39-7.79-17.39-17.39-17.39ZM1007.81,222.79c-6.34,0-11.47-5.14-11.47-11.47s5.14-11.47,11.47-11.47,11.47,5.14,11.47,11.47-5.14,11.47-11.47,11.47Z"/>
  <path class="cls-1" d="M969.53,199.85c4.41,0,8.24,2.49,10.15,6.14h6.4c-2.25-6.99-8.81-12.05-16.55-12.05s-14.3,5.06-16.55,12.05c-.54,1.68-.84,3.47-.84,5.33s.29,3.66.84,5.34c2.25,6.99,8.81,12.05,16.55,12.05s14.3-5.06,16.55-12.05h-6.4c-1.91,3.65-5.74,6.14-10.15,6.14s-8.24-2.49-10.15-6.14c-.84-1.59-1.32-3.41-1.32-5.34s.47-3.74,1.32-5.33c1.91-3.65,5.74-6.14,10.15-6.14Z"/>
  <circle class="cls-1" cx="939.04" cy="224.1" r="4.6" transform="translate(22.43 527.15) rotate(-31.72)"/>
</svg>